<?xml version="1.0" encoding="UTF-8" standalone="no"?>
<!-- Created with Inkscape (http://www.inkscape.org/) -->

<svg
   version="1.1"
   id="svg1"
   width="376.92618"
   height="377.64658"
   viewBox="0 0 376.92618 377.64658"
   xmlns="http://www.w3.org/2000/svg"
   xmlns:svg="http://www.w3.org/2000/svg">
  <defs
     id="defs1" />
  <g
     id="g1"
     transform="translate(-35.930557,-24.405252)">
    <g
       id="g20"
       transform="translate(-1.1432437,-5.7161958)">
      <path
         style="fill:#f8eff0"
         d="m 215,368.62244 c 0,-0.20765 0.7875,-0.99515 1.75,-1.75 1.58606,-1.24387 1.62143,-1.2085 0.37756,0.37756 C 215.82119,368.91575 215,369.44548 215,368.62244 Z M 268.87244,366.25 c -1.24387,-1.58606 -1.2085,-1.62143 0.37756,-0.37756 1.66575,1.30637 2.19548,2.12756 1.37244,2.12756 -0.20765,0 -0.99515,-0.7875 -1.75,-1.75 z m -188.999995,-9 c -1.243871,-1.58606 -1.208501,-1.62143 0.377555,-0.37756 0.9625,0.75485 1.75,1.54235 1.75,1.75 0,0.82304 -0.821186,0.29331 -2.127555,-1.37244 z M 190,358.62244 c 0,-0.20765 0.7875,-0.99515 1.75,-1.75 1.58606,-1.24387 1.62143,-1.2085 0.37756,0.37756 C 190.82119,358.91575 190,359.44548 190,358.62244 Z m 180,0 c 0,-0.20765 0.7875,-0.99515 1.75,-1.75 1.58606,-1.24387 1.62143,-1.2085 0.37756,0.37756 C 370.82119,358.91575 370,359.44548 370,358.62244 Z M 281.40499,349.75 279.5,347.5 l 2.25,1.90499 c 1.2375,1.04774 2.25,2.06024 2.25,2.25 0,0.80025 -0.80479,0.20945 -2.59501,-1.90499 z M 132.75,336.2766 c 1.7875,-0.22182 4.7125,-0.22182 6.5,0 1.7875,0.22183 0.325,0.40333 -3.25,0.40333 -3.575,0 -5.0375,-0.1815 -3.25,-0.40333 z m 178.0625,0.0403 c 0.72187,-0.28887 1.58438,-0.25335 1.91667,0.0789 0.33229,0.33229 -0.25834,0.56864 -1.3125,0.52522 -1.16495,-0.048 -1.4019,-0.28494 -0.60417,-0.60416 z m 9,0 c 0.72187,-0.28887 1.58438,-0.25335 1.91667,0.0789 0.33229,0.33229 -0.25834,0.56864 -1.3125,0.52522 -1.16495,-0.048 -1.4019,-0.28494 -0.60417,-0.60416 z M 295.5,290 c 0.99549,-1.1 2.03498,-2 2.30998,-2 0.275,0 -0.31449,0.9 -1.30998,2 -0.99549,1.1 -2.03498,2 -2.30998,2 -0.275,0 0.31449,-0.9 1.30998,-2 z m 39.90499,-0.25 -1.90499,-2.25 2.25,1.90499 c 2.11444,1.79022 2.70524,2.59501 1.90499,2.59501 -0.18976,0 -1.20226,-1.0125 -2.25,-2.25 z M 132.75,228.2766 c 1.7875,-0.22182 4.7125,-0.22182 6.5,0 1.7875,0.22183 0.325,0.40333 -3.25,0.40333 -3.575,0 -5.0375,-0.1815 -3.25,-0.40333 z m 182,-18.93888 c 0.6875,-0.27741 1.8125,-0.27741 2.5,0 0.6875,0.27741 0.125,0.50439 -1.25,0.50439 -1.375,0 -1.9375,-0.22698 -1.25,-0.50439 z M 391,193.62244 c 0,-0.20765 0.7875,-0.99515 1.75,-1.75 1.58606,-1.24387 1.62143,-1.2085 0.37756,0.37756 C 391.82119,193.91575 391,194.44548 391,193.62244 Z m 4,-5 c 0,-0.20765 0.7875,-0.99515 1.75,-1.75 1.58606,-1.24387 1.62143,-1.2085 0.37756,0.37756 C 395.82119,188.91575 395,189.44548 395,188.62244 Z M 88.872445,186.25 c -1.243871,-1.58606 -1.208501,-1.62143 0.377555,-0.37756 0.9625,0.75485 1.75,1.54235 1.75,1.75 0,0.82304 -0.821186,0.29331 -2.127555,-1.37244 z m 32.940055,-5.93311 c 0.72187,-0.28887 1.58437,-0.25335 1.91667,0.0789 0.33229,0.33229 -0.25834,0.56864 -1.3125,0.52522 -1.16495,-0.048 -1.4019,-0.28494 -0.60417,-0.60416 z M 82.157895,129 c 0,-1.375 0.226973,-1.9375 0.504386,-1.25 0.277412,0.6875 0.277412,1.8125 0,2.5 -0.277413,0.6875 -0.504386,0.125 -0.504386,-1.25 z M 334.87244,109.25 c -1.24387,-1.58606 -1.2085,-1.62143 0.37756,-0.37756 1.66575,1.30637 2.19548,2.12756 1.37244,2.12756 -0.20765,0 -0.99515,-0.7875 -1.75,-1.75 z M 79.5,81 c 0.995486,-1.1 2.034975,-2 2.309975,-2 0.275,0 -0.314489,0.9 -1.309975,2 -0.995486,1.1 -2.034975,2 -2.309975,2 -0.275,0 0.314489,-0.9 1.309975,-2 z M 371.40499,80.75 369.5,78.5 l 2.25,1.904988 C 373.86444,82.195206 374.45524,83 373.65499,83 c -0.18976,0 -1.20226,-1.0125 -2.25,-2.25 z"
         id="path40" />
      <path
         style="fill:#f6e8e8"
         d="m 88.872445,366.25 c -1.243871,-1.58606 -1.208501,-1.62143 0.377555,-0.37756 0.9625,0.75485 1.75,1.54235 1.75,1.75 0,0.82304 -0.821186,0.29331 -2.127555,-1.37244 z M 361,367.62244 c 0,-0.20765 0.7875,-0.99515 1.75,-1.75 1.58606,-1.24387 1.62143,-1.2085 0.37756,0.37756 C 361.82119,367.91575 361,368.44548 361,367.62244 Z m -83,-96 c 0,-0.20765 0.7875,-0.99515 1.75,-1.75 1.58606,-1.24387 1.62143,-1.2085 0.37756,0.37756 C 278.82119,271.91575 278,272.44548 278,271.62244 Z M 381.40499,234.75 379.5,232.5 l 2.25,1.90499 c 1.2375,1.04774 2.25,2.06024 2.25,2.25 0,0.80025 -0.80479,0.20945 -2.59501,-1.90499 z m -82,-82 -1.90499,-2.25 2.25,1.90499 c 2.11444,1.79022 2.70524,2.59501 1.90499,2.59501 -0.18976,0 -1.20226,-1.0125 -2.25,-2.25 z M 161,143.62244 c 0,-0.20765 0.7875,-0.99515 1.75,-1.75 1.58606,-1.24387 1.62143,-1.2085 0.37756,0.37756 C 161.82119,143.91575 161,144.44548 161,143.62244 Z m 4,-3 c 0,-0.20765 0.7875,-0.99515 1.75,-1.75 1.58606,-1.24387 1.62143,-1.2085 0.37756,0.37756 C 165.82119,140.91575 165,141.44548 165,140.62244 Z M 351.87244,90.25 C 350.62857,88.663944 350.66394,88.628574 352.25,89.872445 353.91575,91.178814 354.44548,92 353.62244,92 c -0.20765,0 -0.99515,-0.7875 -1.75,-1.75 z M 120.8125,56.316886 c 0.72187,-0.288871 1.58437,-0.253344 1.91667,0.07895 0.33229,0.332292 -0.25834,0.568641 -1.3125,0.52522 -1.16495,-0.04798 -1.4019,-0.284941 -0.60417,-0.604167 z M 249.5,55 c 0.99549,-1.1 2.03498,-2 2.30998,-2 0.275,0 -0.31449,0.9 -1.30998,2 -0.99549,1.1 -2.03498,2 -2.30998,2 -0.275,0 0.31449,-0.9 1.30998,-2 z"
         id="path39" />
      <path
         style="fill:#f3dfe0"
         d="m 385,379.5 c 1.29175,-1.375 2.57363,-2.5 2.84863,-2.5 0.275,0 -0.55688,1.125 -1.84863,2.5 -1.29175,1.375 -2.57363,2.5 -2.84863,2.5 -0.275,0 0.55688,-1.125 1.84863,-2.5 z M 205.40499,58.75 203.5,56.5 l 2.25,1.904988 C 207.86444,60.195206 208.45524,61 207.65499,61 c -0.18976,0 -1.20226,-1.0125 -2.25,-2.25 z m 171.46745,-7.5 c -1.24387,-1.586056 -1.2085,-1.621426 0.37756,-0.377555 0.9625,0.754844 1.75,1.542344 1.75,1.75 0,0.823034 -0.82119,0.293303 -2.12756,-1.372445 z"
         id="path38" />
      <path
         style="fill:#f1d9da"
         d="m 247.87244,381.25 c -1.24387,-1.58606 -1.2085,-1.62143 0.37756,-0.37756 0.9625,0.75485 1.75,1.54235 1.75,1.75 0,0.82304 -0.82119,0.29331 -2.12756,-1.37244 z M 80,224.62244 c 0,-0.20765 0.7875,-0.99515 1.75,-1.75 1.586056,-1.24387 1.621426,-1.2085 0.377555,0.37756 C 80.821186,224.91575 80,225.44548 80,224.62244 Z"
         id="path37" />
      <path
         style="fill:#eed2d2"
         d="m 241.87244,375.25 c -1.24387,-1.58606 -1.2085,-1.62143 0.37756,-0.37756 0.9625,0.75485 1.75,1.54235 1.75,1.75 0,0.82304 -0.82119,0.29331 -2.12756,-1.37244 z m -4,-4 c -1.24387,-1.58606 -1.2085,-1.62143 0.37756,-0.37756 0.9625,0.75485 1.75,1.54235 1.75,1.75 0,0.82304 -0.82119,0.29331 -2.12756,-1.37244 z m -4,-4 c -1.24387,-1.58606 -1.2085,-1.62143 0.37756,-0.37756 0.9625,0.75485 1.75,1.54235 1.75,1.75 0,0.82304 -0.82119,0.29331 -2.12756,-1.37244 z m 60,-40 c -1.24387,-1.58606 -1.2085,-1.62143 0.37756,-0.37756 1.66575,1.30637 2.19548,2.12756 1.37244,2.12756 -0.20765,0 -0.99515,-0.7875 -1.75,-1.75 z m -4,-4 c -1.24387,-1.58606 -1.2085,-1.62143 0.37756,-0.37756 1.66575,1.30637 2.19548,2.12756 1.37244,2.12756 -0.20765,0 -0.99515,-0.7875 -1.75,-1.75 z m -136,-36 c -1.24387,-1.58606 -1.2085,-1.62143 0.37756,-0.37756 0.9625,0.75485 1.75,1.54235 1.75,1.75 0,0.82304 -0.82119,0.29331 -2.12756,-1.37244 z m 212,-33 c -1.24387,-1.58606 -1.2085,-1.62143 0.37756,-0.37756 1.66575,1.30637 2.19548,2.12756 1.37244,2.12756 -0.20765,0 -0.99515,-0.7875 -1.75,-1.75 z M 364,220.62244 c 0,-0.20765 0.7875,-0.99515 1.75,-1.75 1.58606,-1.24387 1.62143,-1.2085 0.37756,0.37756 C 364.82119,220.91575 364,221.44548 364,220.62244 Z M 371,213.5 c 1.86578,-1.925 3.61733,-3.5 3.89233,-3.5 0.275,0 -1.02655,1.575 -2.89233,3.5 -1.86578,1.925 -3.61733,3.5 -3.89233,3.5 -0.275,0 1.02655,-1.575 2.89233,-3.5 z m 5,-4.87756 c 0,-0.20765 0.7875,-0.99515 1.75,-1.75 1.58606,-1.24387 1.62143,-1.2085 0.37756,0.37756 C 376.82119,208.91575 376,209.44548 376,208.62244 Z m 4,-4 c 0,-0.20765 0.7875,-0.99515 1.75,-1.75 1.58606,-1.24387 1.62143,-1.2085 0.37756,0.37756 C 380.82119,204.91575 380,205.44548 380,204.62244 Z M 66.872445,200.25 c -1.243871,-1.58606 -1.208501,-1.62143 0.377555,-0.37756 0.9625,0.75485 1.75,1.54235 1.75,1.75 0,0.82304 -0.821186,0.29331 -2.127555,-1.37244 z M 385.5,199 c 0.99549,-1.1 2.03498,-2 2.30998,-2 0.275,0 -0.31449,0.9 -1.30998,2 -0.99549,1.1 -2.03498,2 -2.30998,2 -0.275,0 0.31449,-0.9 1.30998,-2 z M 278.87244,167.25 c -1.24387,-1.58606 -1.2085,-1.62143 0.37756,-0.37756 0.9625,0.75485 1.75,1.54235 1.75,1.75 0,0.82304 -0.82119,0.29331 -2.12756,-1.37244 z M 320,164.62244 c 0,-0.20765 0.7875,-0.99515 1.75,-1.75 1.58606,-1.24387 1.62143,-1.2085 0.37756,0.37756 C 320.82119,164.91575 320,165.44548 320,164.62244 Z m 4,-4 c 0,-0.20765 0.7875,-0.99515 1.75,-1.75 1.58606,-1.24387 1.62143,-1.2085 0.37756,0.37756 C 324.82119,160.91575 324,161.44548 324,160.62244 Z m 4,-4 c 0,-0.20765 0.7875,-0.99515 1.75,-1.75 1.58606,-1.24387 1.62143,-1.2085 0.37756,0.37756 C 328.82119,156.91575 328,157.44548 328,156.62244 Z M 333.5,151 c 0.99549,-1.1 2.03498,-2 2.30998,-2 0.275,0 -0.31449,0.9 -1.30998,2 -0.99549,1.1 -2.03498,2 -2.30998,2 -0.275,0 0.31449,-0.9 1.30998,-2 z"
         id="path36" />
      <path
         style="fill:#ebc7c8"
         d="m 314.75,256.33772 c 0.6875,-0.27741 1.8125,-0.27741 2.5,0 0.6875,0.27741 0.125,0.50439 -1.25,0.50439 -1.375,0 -1.9375,-0.22698 -1.25,-0.50439 z M 313,171.62244 c 0,-0.20765 0.7875,-0.99515 1.75,-1.75 1.58606,-1.24387 1.62143,-1.2085 0.37756,0.37756 C 313.82119,171.91575 313,172.44548 313,171.62244 Z m -157,-23 c 0,-0.20765 0.7875,-0.99515 1.75,-1.75 1.58606,-1.24387 1.62143,-1.2085 0.37756,0.37756 C 156.82119,148.91575 156,149.44548 156,148.62244 Z M 61.078947,129.41667 c 0.04798,-1.16495 0.284941,-1.4019 0.604167,-0.60417 0.288871,0.72187 0.253344,1.58437 -0.07895,1.91667 -0.332292,0.33229 -0.568641,-0.25834 -0.52522,-1.3125 z M 314.75,76.337719 c 0.6875,-0.277412 1.8125,-0.277412 2.5,0 0.6875,0.277413 0.125,0.504386 -1.25,0.504386 -1.375,0 -1.9375,-0.226973 -1.25,-0.504386 z"
         id="path35" />
      <path
         style="fill:#e8bfc0"
         d="m 169.87244,123.25 c -1.24387,-1.58606 -1.2085,-1.62143 0.37756,-0.37756 1.66575,1.30637 2.19548,2.12756 1.37244,2.12756 -0.20765,0 -0.99515,-0.7875 -1.75,-1.75 z m -14,-14 c -1.24387,-1.58606 -1.2085,-1.62143 0.37756,-0.37756 1.66575,1.30637 2.19548,2.12756 1.37244,2.12756 -0.20765,0 -0.99515,-0.7875 -1.75,-1.75 z"
         id="path34" />
      <path
         style="fill:#e6b7b7"
         d="m 314.75,337.33772 c 0.6875,-0.27741 1.8125,-0.27741 2.5,0 0.6875,0.27741 0.125,0.50439 -1.25,0.50439 -1.375,0 -1.9375,-0.22698 -1.25,-0.50439 z M 390.15789,309 c 0,-1.375 0.22698,-1.9375 0.50439,-1.25 0.27741,0.6875 0.27741,1.8125 0,2.5 -0.27741,0.6875 -0.50439,0.125 -0.50439,-1.25 z M 368.07895,126.41667 c 0.048,-1.16495 0.28494,-1.4019 0.60416,-0.60417 0.28887,0.72187 0.25335,1.58438 -0.0789,1.91667 -0.33229,0.33229 -0.56864,-0.25834 -0.52522,-1.3125 z"
         id="path33" />
      <path
         style="fill:#e1a8a8"
         d="m 134.25,383.31067 c 0.9625,-0.25152 2.5375,-0.25152 3.5,0 0.9625,0.25153 0.175,0.45733 -1.75,0.45733 -1.925,0 -2.7125,-0.2058 -1.75,-0.45733 z m 180.01903,-0.004 c 0.97297,-0.25354 2.32297,-0.23687 3,0.0371 0.67703,0.27393 -0.11903,0.48137 -1.76903,0.46099 -1.65,-0.0204 -2.20394,-0.2445 -1.23097,-0.49804 z m 53.80992,-71.89034 c 0.048,-1.16495 0.28494,-1.4019 0.60416,-0.60417 0.28887,0.72187 0.25335,1.58438 -0.0789,1.91667 -0.33229,0.33229 -0.56864,-0.25834 -0.52522,-1.3125 z M 83.232003,309 c 0,-1.925 0.205795,-2.7125 0.457323,-1.75 0.251527,0.9625 0.251527,2.5375 0,3.5 -0.251528,0.9625 -0.457323,0.175 -0.457323,-1.75 z m 284.846947,-2.58333 c 0.048,-1.16495 0.28494,-1.4019 0.60416,-0.60417 0.28887,0.72187 0.25335,1.58438 -0.0789,1.91667 -0.33229,0.33229 -0.56864,-0.25834 -0.52522,-1.3125 z M 295.5,289 c 0.99549,-1.1 2.03498,-2 2.30998,-2 0.275,0 -0.31449,0.9 -1.30998,2 -0.99549,1.1 -2.03498,2 -2.30998,2 -0.275,0 0.31449,-0.9 1.30998,-2 z m 18.76903,-54.69299 c 0.97297,-0.25354 2.32297,-0.23687 3,0.0371 0.67703,0.27393 -0.11903,0.48137 -1.76903,0.46099 -1.65,-0.0204 -2.20394,-0.2445 -1.23097,-0.49804 z M 197.07895,219.41667 c 0.048,-1.16495 0.28494,-1.4019 0.60416,-0.60417 0.28887,0.72187 0.25335,1.58437 -0.0789,1.91667 -0.3323,0.33229 -0.56864,-0.25834 -0.52522,-1.3125 z m 171,-90 c 0.048,-1.16495 0.28494,-1.4019 0.60416,-0.60417 0.28887,0.72187 0.25335,1.58437 -0.0789,1.91667 -0.33229,0.33229 -0.56864,-0.25834 -0.52522,-1.3125 z M 131.8125,30.316886 c 0.72187,-0.288871 1.58437,-0.253344 1.91667,0.07895 0.33229,0.332292 -0.25834,0.568641 -1.3125,0.52522 -1.16495,-0.04798 -1.4019,-0.284941 -0.60417,-0.604167 z m 7,0 c 0.72187,-0.288871 1.58437,-0.253344 1.91667,0.07895 0.33229,0.332292 -0.25834,0.568641 -1.3125,0.52522 -1.16495,-0.04798 -1.4019,-0.284941 -0.60417,-0.604167 z m 173,0 c 0.72187,-0.288871 1.58438,-0.253344 1.91667,0.07895 0.33229,0.332292 -0.25834,0.568641 -1.3125,0.52522 -1.16495,-0.04798 -1.4019,-0.284941 -0.60417,-0.604167 z m 7,0 c 0.72187,-0.288871 1.58438,-0.253344 1.91667,0.07895 0.33229,0.332292 -0.25834,0.568641 -1.3125,0.52522 -1.16495,-0.04798 -1.4019,-0.284941 -0.60417,-0.604167 z"
         id="path32" />
      <path
         style="fill:#dea1a1"
         d="m 224.75,271.33772 c 0.6875,-0.27741 1.8125,-0.27741 2.5,0 0.6875,0.27741 0.125,0.50439 -1.25,0.50439 -1.375,0 -1.9375,-0.22698 -1.25,-0.50439 z m -90,-241.000001 c 0.6875,-0.277412 1.8125,-0.277412 2.5,0 0.6875,0.277413 0.125,0.504386 -1.25,0.504386 -1.375,0 -1.9375,-0.226973 -1.25,-0.504386 z m 180,0 c 0.6875,-0.277412 1.8125,-0.277412 2.5,0 0.6875,0.277413 0.125,0.504386 -1.25,0.504386 -1.375,0 -1.9375,-0.226973 -1.25,-0.504386 z"
         id="path31" />
      <path
         style="fill:#dc9797"
         d="m 134.25,407.31067 c 0.9625,-0.25152 2.5375,-0.25152 3.5,0 0.9625,0.25153 0.175,0.45733 -1.75,0.45733 -1.925,0 -2.7125,-0.2058 -1.75,-0.45733 z m 180,0 c 0.9625,-0.25152 2.5375,-0.25152 3.5,0 0.9625,0.25153 0.175,0.45733 -1.75,0.45733 -1.925,0 -2.7125,-0.2058 -1.75,-0.45733 z M 278,272.62244 c 0,-0.20765 0.7875,-0.99515 1.75,-1.75 1.58606,-1.24387 1.62143,-1.2085 0.37756,0.37756 C 278.82119,272.91575 278,273.44548 278,272.62244 Z M 254.15789,219 c 0,-1.375 0.22698,-1.9375 0.50439,-1.25 0.27741,0.6875 0.27741,1.8125 0,2.5 -0.27741,0.6875 -0.50439,0.125 -0.50439,-1.25 z m 65.65461,-8.68311 c 0.72187,-0.28887 1.58438,-0.25335 1.91667,0.0789 0.33229,0.33229 -0.25834,0.56864 -1.3125,0.52522 -1.16495,-0.048 -1.4019,-0.28494 -0.60417,-0.60416 z M 287.15789,129 c 0,-1.375 0.22698,-1.9375 0.50439,-1.25 0.27741,0.6875 0.27741,1.8125 0,2.5 -0.27741,0.6875 -0.50439,0.125 -0.50439,-1.25 z"
         id="path30" />
      <path
         style="fill:#d78787"
         d="m 107.15789,309 c 0,-1.375 0.22698,-1.9375 0.50439,-1.25 0.27741,0.6875 0.27741,1.8125 0,2.5 -0.27741,0.6875 -0.50439,0.125 -0.50439,-1.25 z M 314.25,210.31067 c 0.9625,-0.25152 2.5375,-0.25152 3.5,0 0.9625,0.25153 0.175,0.45733 -1.75,0.45733 -1.925,0 -2.7125,-0.2058 -1.75,-0.45733 z M 216,135.5 c -2.42903,-2.475 -4.19142,-4.5 -3.91642,-4.5 0.275,0 2.48739,2.025 4.91642,4.5 2.42903,2.475 4.19142,4.5 3.91642,4.5 -0.275,0 -2.48739,-2.025 -4.91642,-4.5 z M 37.078947,131.41667 c 0.04798,-1.16495 0.284941,-1.4019 0.604167,-0.60417 0.288871,0.72187 0.253344,1.58437 -0.07895,1.91667 -0.332292,0.33229 -0.568641,-0.25834 -0.52522,-1.3125 z M 205.40499,124.75 203.5,122.5 l 2.25,1.90499 c 2.11444,1.79022 2.70524,2.59501 1.90499,2.59501 -0.18976,0 -1.20226,-1.0125 -2.25,-2.25 z m -6.45882,-6.5 -3.44617,-3.75 3.75,3.44617 c 2.0625,1.89539 3.75,3.58289 3.75,3.75 0,0.76362 -0.84622,0.0443 -4.05383,-3.44617 z m -15.96248,-16 L 171.5,90.5 183.25,101.98369 C 194.16409,112.65041 195.45386,114 194.73369,114 c -0.14647,0 -5.43397,-5.2875 -11.75,-11.75 z M 278,92.622445 c 0,-0.207656 0.7875,-0.995156 1.75,-1.75 1.58606,-1.243871 1.62143,-1.208501 0.37756,0.377555 C 278.82119,92.915748 278,93.445479 278,92.622445 Z M 382.87244,57.25 C 381.62857,55.663944 381.66394,55.628574 383.25,56.872445 384.91575,58.178814 385.44548,59 384.62244,59 c -0.20765,0 -0.99515,-0.7875 -1.75,-1.75 z M 132.8125,54.316886 c 0.72187,-0.288871 1.58437,-0.253344 1.91667,0.07895 0.33229,0.332292 -0.25834,0.568641 -1.3125,0.52522 -1.16495,-0.04798 -1.4019,-0.284941 -0.60417,-0.604167 z m 5,0 c 0.72187,-0.288871 1.58437,-0.253344 1.91667,0.07895 0.33229,0.332292 -0.25834,0.568641 -1.3125,0.52522 -1.16495,-0.04798 -1.4019,-0.284941 -0.60417,-0.604167 z m 175,0 c 0.72187,-0.288871 1.58438,-0.253344 1.91667,0.07895 0.33229,0.332292 -0.25834,0.568641 -1.3125,0.52522 -1.16495,-0.04798 -1.4019,-0.284941 -0.60417,-0.604167 z m 5,0 c 0.72187,-0.288871 1.58438,-0.253344 1.91667,0.07895 0.33229,0.332292 -0.25834,0.568641 -1.3125,0.52522 -1.16495,-0.04798 -1.4019,-0.284941 -0.60417,-0.604167 z"
         id="path29" />
      <path
         style="fill:#d4807e"
         d="m 314.75,361.33772 c 0.6875,-0.27741 1.8125,-0.27741 2.5,0 0.6875,0.27741 0.125,0.50439 -1.25,0.50439 -1.375,0 -1.9375,-0.22698 -1.25,-0.50439 z M 97.872445,345.25 c -1.243871,-1.58606 -1.208501,-1.62143 0.377555,-0.37756 0.9625,0.75485 1.75,1.54235 1.75,1.75 0,0.82304 -0.821186,0.29331 -2.127555,-1.37244 z M 116,254.5 c 9.61321,-9.625 17.70357,-17.5 17.97857,-17.5 0.275,0 -7.36536,7.875 -16.97857,17.5 -9.61321,9.625 -17.703567,17.5 -17.978567,17.5 -0.275,0 7.365357,-7.875 16.978567,-17.5 z m 19,-18.87756 c 0,-0.20765 0.7875,-0.99515 1.75,-1.75 1.58606,-1.24387 1.62143,-1.2085 0.37756,0.37756 C 135.82119,235.91575 135,236.44548 135,235.62244 Z M 140.5,230 c 0.99549,-1.1 2.03498,-2 2.30998,-2 0.275,0 -0.31449,0.9 -1.30998,2 -0.99549,1.1 -2.03498,2 -2.30998,2 -0.275,0 0.31449,-0.9 1.30998,-2 z"
         id="path28" />
      <path
         style="fill:#d27776"
         d="m 382,381.62244 c 0,-0.20765 0.7875,-0.99515 1.75,-1.75 1.58606,-1.24387 1.62143,-1.2085 0.37756,0.37756 C 382.82119,381.91575 382,382.44548 382,381.62244 Z M 217.49592,316.75 171.5,270.5 217.75,316.49592 C 260.73873,359.2485 264.44924,363 263.74592,363 c -0.13974,0 -20.95224,-20.8125 -46.25,-46.25 z M 134.75,227.33772 c 0.6875,-0.27741 1.8125,-0.27741 2.5,0 0.6875,0.27741 0.125,0.50439 -1.25,0.50439 -1.375,0 -1.9375,-0.22698 -1.25,-0.50439 z M 339,211.62244 c 0,-0.20765 0.7875,-0.99515 1.75,-1.75 1.58606,-1.24387 1.62143,-1.2085 0.37756,0.37756 C 339.82119,211.91575 339,212.44548 339,211.62244 Z m 4,-4 c 0,-0.20765 0.7875,-0.99515 1.75,-1.75 1.58606,-1.24387 1.62143,-1.2085 0.37756,0.37756 C 343.82119,207.91575 343,208.44548 343,207.62244 Z m 20,-20 c 0,-0.20765 0.7875,-0.99515 1.75,-1.75 1.58606,-1.24387 1.62143,-1.2085 0.37756,0.37756 C 363.82119,187.91575 363,188.44548 363,187.62244 Z M 97.872445,165.25 c -1.243871,-1.58606 -1.208501,-1.62143 0.377555,-0.37756 0.9625,0.75485 1.75,1.54235 1.75,1.75 0,0.82304 -0.821186,0.29331 -2.127555,-1.37244 z M 202.87244,57.25 C 201.62857,55.663944 201.66394,55.628574 203.25,56.872445 204.91575,58.178814 205.44548,59 204.62244,59 c -0.20765,0 -0.99515,-0.7875 -1.75,-1.75 z"
         id="path27" />
      <path
         style="fill:#cd6766"
         d="m 203.5,380 c 0.99549,-1.1 2.03498,-2 2.30998,-2 0.275,0 -0.31449,0.9 -1.30998,2 -0.99549,1.1 -2.03498,2 -2.30998,2 -0.275,0 0.31449,-0.9 1.30998,-2 z M 64.872445,377.25 c -1.243871,-1.58606 -1.208501,-1.62143 0.377555,-0.37756 0.9625,0.75485 1.75,1.54235 1.75,1.75 0,0.82304 -0.821186,0.29331 -2.127555,-1.37244 z M 187,363.62244 c 0,-0.20765 0.7875,-0.99515 1.75,-1.75 1.58606,-1.24387 1.62143,-1.2085 0.37756,0.37756 C 187.82119,363.91575 187,364.44548 187,363.62244 Z m 163,-15 c 0,-0.20765 0.7875,-0.99515 1.75,-1.75 1.58606,-1.24387 1.62143,-1.2085 0.37756,0.37756 C 350.82119,348.91575 350,349.44548 350,348.62244 Z M 382.87244,237.25 c -1.24387,-1.58606 -1.2085,-1.62143 0.37756,-0.37756 1.66575,1.30637 2.19548,2.12756 1.37244,2.12756 -0.20765,0 -0.99515,-0.7875 -1.75,-1.75 z m -123,-123 c -1.24387,-1.58606 -1.2085,-1.62143 0.37756,-0.37756 0.9625,0.75485 1.75,1.54235 1.75,1.75 0,0.82304 -0.82119,0.29331 -2.12756,-1.37244 z m -4,-4 c -1.24387,-1.58606 -1.2085,-1.62143 0.37756,-0.37756 0.9625,0.75485 1.75,1.54235 1.75,1.75 0,0.82304 -0.82119,0.29331 -2.12756,-1.37244 z m -4,-4 c -1.24387,-1.58606 -1.2085,-1.62143 0.37756,-0.37756 1.66575,1.30637 2.19548,2.12756 1.37244,2.12756 -0.20765,0 -0.99515,-0.7875 -1.75,-1.75 z m -4,-4 c -1.24387,-1.58606 -1.2085,-1.62143 0.37756,-0.37756 1.66575,1.30637 2.19548,2.12756 1.37244,2.12756 -0.20765,0 -0.99515,-0.7875 -1.75,-1.75 z m -36,-36 C 210.62857,64.663944 210.66394,64.628574 212.25,65.872445 213.91575,67.178814 214.44548,68 213.62244,68 c -0.20765,0 -0.99515,-0.7875 -1.75,-1.75 z M 247,58.622445 c 0,-0.207656 0.7875,-0.995156 1.75,-1.75 1.58606,-1.243871 1.62143,-1.208501 0.37756,0.377555 C 247.82119,58.915748 247,59.445479 247,58.622445 Z"
         id="path26" />
      <path
         style="fill:#c95957"
         d="m 234.5,367 c -6.58281,-6.6 -11.74374,-12 -11.46874,-12 0.275,0 5.88593,5.4 12.46874,12 6.58281,6.6 11.74374,12 11.46874,12 -0.275,0 -5.88593,-5.4 -12.46874,-12 z M 190,360.62244 c 0,-0.20765 0.7875,-0.99515 1.75,-1.75 1.58606,-1.24387 1.62143,-1.2085 0.37756,0.37756 C 190.82119,360.91575 190,361.44548 190,360.62244 Z M 202.87244,335.25 c -1.24387,-1.58606 -1.2085,-1.62143 0.37756,-0.37756 0.9625,0.75485 1.75,1.54235 1.75,1.75 0,0.82304 -0.82119,0.29331 -2.12756,-1.37244 z m -4,-4 c -1.24387,-1.58606 -1.2085,-1.62143 0.37756,-0.37756 0.9625,0.75485 1.75,1.54235 1.75,1.75 0,0.82304 -0.82119,0.29331 -2.12756,-1.37244 z m -8,-8 c -1.24387,-1.58606 -1.2085,-1.62143 0.37756,-0.37756 1.66575,1.30637 2.19548,2.12756 1.37244,2.12756 -0.20765,0 -0.99515,-0.7875 -1.75,-1.75 z m 85,-13 c -1.24387,-1.58606 -1.2085,-1.62143 0.37756,-0.37756 1.66575,1.30637 2.19548,2.12756 1.37244,2.12756 -0.20765,0 -0.99515,-0.7875 -1.75,-1.75 z m -122,-24 c -1.24387,-1.58606 -1.2085,-1.62143 0.37756,-0.37756 0.9625,0.75485 1.75,1.54235 1.75,1.75 0,0.82304 -0.82119,0.29331 -2.12756,-1.37244 z M 365,218.5 c 1.29175,-1.375 2.57363,-2.5 2.84863,-2.5 0.275,0 -0.55688,1.125 -1.84863,2.5 -1.29175,1.375 -2.57363,2.5 -2.84863,2.5 -0.275,0 0.55688,-1.125 1.84863,-2.5 z m 4,-3.87756 c 0,-0.20765 0.7875,-0.99515 1.75,-1.75 1.58606,-1.24387 1.62143,-1.2085 0.37756,0.37756 C 369.82119,214.91575 369,215.44548 369,214.62244 Z m 4,-3.89747 c 0,-0.15126 3.4875,-3.63876 7.75,-7.75 l 7.75,-7.47497 -7.47497,7.75 C 374.08244,210.44803 373,211.45627 373,210.72497 Z M 67.404988,199.75 65.5,197.5 l 2.25,1.90499 C 69.864445,201.19521 70.455241,202 69.654988,202 c -0.189757,0 -1.202257,-1.0125 -2.25,-2.25 z M 184,186.62244 c 0,-0.20765 0.7875,-0.99515 1.75,-1.75 1.58606,-1.24387 1.62143,-1.2085 0.37756,0.37756 C 184.82119,186.91575 184,187.44548 184,186.62244 Z M 274.87244,162.25 c -1.24387,-1.58606 -1.2085,-1.62143 0.37756,-0.37756 1.66575,1.30637 2.19548,2.12756 1.37244,2.12756 -0.20765,0 -0.99515,-0.7875 -1.75,-1.75 z m -4,-4 c -1.24387,-1.58606 -1.2085,-1.62143 0.37756,-0.37756 0.9625,0.75485 1.75,1.54235 1.75,1.75 0,0.82304 -0.82119,0.29331 -2.12756,-1.37244 z m -4,-4 c -1.24387,-1.58606 -1.2085,-1.62143 0.37756,-0.37756 0.9625,0.75485 1.75,1.54235 1.75,1.75 0,0.82304 -0.82119,0.29331 -2.12756,-1.37244 z m -4,-4 c -1.24387,-1.58606 -1.2085,-1.62143 0.37756,-0.37756 1.66575,1.30637 2.19548,2.12756 1.37244,2.12756 -0.20765,0 -0.99515,-0.7875 -1.75,-1.75 z M 334,151.62244 c 0,-0.20765 0.7875,-0.99515 1.75,-1.75 1.58606,-1.24387 1.62143,-1.2085 0.37756,0.37756 C 334.82119,151.91575 334,152.44548 334,151.62244 Z M 258.87244,146.25 c -1.24387,-1.58606 -1.2085,-1.62143 0.37756,-0.37756 0.9625,0.75485 1.75,1.54235 1.75,1.75 0,0.82304 -0.82119,0.29331 -2.12756,-1.37244 z m -4,-4 c -1.24387,-1.58606 -1.2085,-1.62143 0.37756,-0.37756 0.9625,0.75485 1.75,1.54235 1.75,1.75 0,0.82304 -0.82119,0.29331 -2.12756,-1.37244 z m -4,-4 c -1.24387,-1.58606 -1.2085,-1.62143 0.37756,-0.37756 1.66575,1.30637 2.19548,2.12756 1.37244,2.12756 -0.20765,0 -0.99515,-0.7875 -1.75,-1.75 z m -4,-4 c -1.24387,-1.58606 -1.2085,-1.62143 0.37756,-0.37756 0.9625,0.75485 1.75,1.54235 1.75,1.75 0,0.82304 -0.82119,0.29331 -2.12756,-1.37244 z m -4,-4 c -1.24387,-1.58606 -1.2085,-1.62143 0.37756,-0.37756 0.9625,0.75485 1.75,1.54235 1.75,1.75 0,0.82304 -0.82119,0.29331 -2.12756,-1.37244 z"
         id="path25" />
      <path
         style="fill:#c44846"
         d="m 184,366.62244 c 0,-0.20765 0.7875,-0.99515 1.75,-1.75 1.58606,-1.24387 1.62143,-1.2085 0.37756,0.37756 C 184.82119,366.91575 184,367.44548 184,366.62244 Z M 124.98213,278.75 C 134.71816,268.76517 136,267.54566 136,268.26787 c 0,0.14732 -4.8375,4.98482 -10.75,10.75 L 114.5,289.5 Z m 37.89031,-163.5 c -1.24387,-1.58606 -1.2085,-1.62143 0.37756,-0.37756 1.66575,1.30637 2.19548,2.12756 1.37244,2.12756 -0.20765,0 -0.99515,-0.7875 -1.75,-1.75 z m -5.43535,-5.5 -2.93709,-3.25 3.25,2.93709 c 3.02946,2.73778 3.70965,3.56291 2.93709,3.56291 -0.1721,0 -1.6346,-1.4625 -3.25,-3.25 z"
         id="path24" />
      <path
         style="fill:#c2403e"
         d="m 85.872445,365.25 c -1.243871,-1.58606 -1.208501,-1.62143 0.377555,-0.37756 0.9625,0.75485 1.75,1.54235 1.75,1.75 0,0.82304 -0.821186,0.29331 -2.127555,-1.37244 z M 364,366.62244 c 0,-0.20765 0.7875,-0.99515 1.75,-1.75 1.58606,-1.24387 1.62143,-1.2085 0.37756,0.37756 C 364.82119,366.91575 364,367.44548 364,366.62244 Z M 281.87244,169.25 c -1.24387,-1.58606 -1.2085,-1.62143 0.37756,-0.37756 0.9625,0.75485 1.75,1.54235 1.75,1.75 0,0.82304 -0.82119,0.29331 -2.12756,-1.37244 z"
         id="path23" />
      <path
         style="fill:#c03b38"
         d="m 335.87244,288.25 c -1.24387,-1.58606 -1.2085,-1.62143 0.37756,-0.37756 1.66575,1.30637 2.19548,2.12756 1.37244,2.12756 -0.20765,0 -0.99515,-0.7875 -1.75,-1.75 z"
         id="path22" />
      <path
         style="fill:#be3432"
         d="m 76.872445,387.25 c -1.243871,-1.58606 -1.208501,-1.62143 0.377555,-0.37756 0.9625,0.75485 1.75,1.54235 1.75,1.75 0,0.82304 -0.821186,0.29331 -2.127555,-1.37244 z m -5,-4 c -1.243871,-1.58606 -1.208501,-1.62143 0.377555,-0.37756 0.9625,0.75485 1.75,1.54235 1.75,1.75 0,0.82304 -0.821186,0.29331 -2.127555,-1.37244 z M 198,384.62244 c 0,-0.20765 0.7875,-0.99515 1.75,-1.75 1.58606,-1.24387 1.62143,-1.2085 0.37756,0.37756 C 198.82119,384.91575 198,385.44548 198,384.62244 Z m 157,-42 c 0,-0.20765 0.7875,-0.99515 1.75,-1.75 1.58606,-1.24387 1.62143,-1.2085 0.37756,0.37756 C 355.82119,342.91575 355,343.44548 355,342.62244 Z M 112.87244,327.25 c -1.24387,-1.58606 -1.2085,-1.62143 0.37756,-0.37756 0.9625,0.75485 1.75,1.54235 1.75,1.75 0,0.82304 -0.82119,0.29331 -2.12756,-1.37244 z M 157,328.62244 c 0,-0.20765 0.7875,-0.99515 1.75,-1.75 1.58606,-1.24387 1.62143,-1.2085 0.37756,0.37756 C 157.82119,328.91575 157,329.44548 157,328.62244 Z m 138,-40 c 0,-0.20765 0.7875,-0.99515 1.75,-1.75 1.58606,-1.24387 1.62143,-1.2085 0.37756,0.37756 C 295.82119,288.91575 295,289.44548 295,288.62244 Z M 149.87244,281.25 c -1.24387,-1.58606 -1.2085,-1.62143 0.37756,-0.37756 0.9625,0.75485 1.75,1.54235 1.75,1.75 0,0.82304 -0.82119,0.29331 -2.12756,-1.37244 z M 280,271.62244 c 0,-0.20765 0.7875,-0.99515 1.75,-1.75 1.58606,-1.24387 1.62143,-1.2085 0.37756,0.37756 C 280.82119,271.91575 280,272.44548 280,271.62244 Z M 349.87244,270.25 c -1.24387,-1.58606 -1.2085,-1.62143 0.37756,-0.37756 1.66575,1.30637 2.19548,2.12756 1.37244,2.12756 -0.20765,0 -0.99515,-0.7875 -1.75,-1.75 z M 192.40499,258.75 190.5,256.5 l 2.25,1.90499 c 2.11444,1.79022 2.70524,2.59501 1.90499,2.59501 -0.18976,0 -1.20226,-1.0125 -2.25,-2.25 z M 258,259.62244 c 0,-0.20765 0.7875,-0.99515 1.75,-1.75 1.58606,-1.24387 1.62143,-1.2085 0.37756,0.37756 C 258.82119,259.91575 258,260.44548 258,259.62244 Z m 55.26375,-26.34002 c 1.52006,-0.22986 3.77006,-0.22371 5,0.0136 1.22994,0.23736 -0.0138,0.42542 -2.76375,0.41792 -2.75,-0.008 -3.75631,-0.20172 -2.23625,-0.43157 z M 170,167.62244 c 0,-0.20765 0.7875,-0.99515 1.75,-1.75 1.58606,-1.24387 1.62143,-1.2085 0.37756,0.37756 C 170.82119,167.91575 170,168.44548 170,167.62244 Z m 53.75,-0.32817 c 1.2375,-0.23836 3.2625,-0.23836 4.5,0 1.2375,0.23835 0.225,0.43337 -2.25,0.43337 -2.475,0 -3.4875,-0.19502 -2.25,-0.43337 z M 299.87244,155.25 c -1.24387,-1.58606 -1.2085,-1.62143 0.37756,-0.37756 0.9625,0.75485 1.75,1.54235 1.75,1.75 0,0.82304 -0.82119,0.29331 -2.12756,-1.37244 z m 67.37974,-25.75 c 0.0111,-2.2 0.21589,-2.98225 0.45508,-1.73834 0.23919,1.24391 0.23011,3.04391 -0.0202,4 -0.25029,0.95609 -0.446,-0.0617 -0.4349,-2.26166 z M 335.92431,108.25 333.5,105.5 l 2.75,2.42431 c 2.57029,2.26589 3.20859,3.07569 2.42431,3.07569 -0.17912,0 -1.41662,-1.2375 -2.75,-2.75 z M 280,91.622445 c 0,-0.207656 0.7875,-0.995156 1.75,-1.75 1.58606,-1.243871 1.62143,-1.208501 0.37756,0.377555 C 280.82119,91.915748 280,92.445479 280,91.622445 Z M 349.87244,90.25 C 348.62857,88.663944 348.66394,88.628574 350.25,89.872445 351.91575,91.178814 352.44548,92 351.62244,92 c -0.20765,0 -0.99515,-0.7875 -1.75,-1.75 z M 86,72.622445 c 0,-0.207656 0.7875,-0.995156 1.75,-1.75 C 89.336056,69.628574 89.371426,69.663944 88.127555,71.25 86.821186,72.915748 86,73.445479 86,72.622445 Z M 363.87244,71.25 C 362.62857,69.663944 362.66394,69.628574 364.25,70.872445 365.91575,72.178814 366.44548,73 365.62244,73 c -0.20765,0 -0.99515,-0.7875 -1.75,-1.75 z M 130.75,31.337719 c 0.6875,-0.277412 1.8125,-0.277412 2.5,0 0.6875,0.277413 0.125,0.504386 -1.25,0.504386 -1.375,0 -1.9375,-0.226973 -1.25,-0.504386 z m 8,0 c 0.6875,-0.277412 1.8125,-0.277412 2.5,0 0.6875,0.277413 0.125,0.504386 -1.25,0.504386 -1.375,0 -1.9375,-0.226973 -1.25,-0.504386 z m 172,0 c 0.6875,-0.277412 1.8125,-0.277412 2.5,0 0.6875,0.277413 0.125,0.504386 -1.25,0.504386 -1.375,0 -1.9375,-0.226973 -1.25,-0.504386 z m 8,0 c 0.6875,-0.277412 1.8125,-0.277412 2.5,0 0.6875,0.277413 0.125,0.504386 -1.25,0.504386 -1.375,0 -1.9375,-0.226973 -1.25,-0.504386 z"
         id="path21" />
      <path
         style="fill:#ba2320"
         d="M 120.32495,405.49183 C 86.958556,400.27208 57.130247,376.16527 44.973047,344.5935 40.999758,334.27503 38,318.96294 38,309 c 0,-14.90142 5.097741,-34.23328 12.566368,-47.65468 5.130774,-9.2202 10.256482,-15.39918 25.778685,-31.0759 13.445742,-13.5796 14.0003,-14.29864 12.12263,-15.7182 -1.082226,-0.81819 -2.285199,-1.50192 -2.673274,-1.51942 -1.366108,-0.0616 -8.363797,-5.19974 -14.623422,-10.73749 C 54.988077,187.97766 44.529053,169.50881 40.051672,147.34292 33.716146,115.97802 43.806813,83.262152 66.956437,60.112529 87.875834,39.193132 114.98967,29.524302 145.51181,32.099576 172.35539,34.364474 189.72478,43.919341 216.98369,71.416107 223.29972,77.787248 228.72935,83 229.04955,83 c 0.32019,0 1.60679,-1.823067 2.8591,-4.05126 6.56659,-11.683666 20.73453,-25.791135 33.96763,-33.822648 17.24818,-10.468371 37.50576,-14.893692 59.63217,-13.0268 32.19081,2.716066 61.27358,22.18428 77.0664,51.588786 C 409.26186,96.138571 414,114.92993 414,129 c 0,14.57986 -5.10397,34.25404 -12.19298,47 -5.43434,9.77091 -9.89583,15.2189 -25.10612,30.65745 C 363.4033,220.15461 360.60247,224 364.06927,224 c 1.44722,0 10.69381,6.64616 17.55511,12.61804 6.99085,6.08466 15.73008,17.15176 20.3402,25.75823 8.13542,15.18775 12.61591,34.26352 11.75578,50.05053 -1.6216,29.76317 -14.76236,55.57947 -37.19596,73.07506 -15.17366,11.83368 -30.74051,18.26786 -49.7744,20.57302 -18.57226,2.24925 -39.15139,-1.49595 -55.19324,-10.04463 -12.08842,-6.44191 -16.57459,-9.98427 -32.80986,-25.90728 -8.6642,-8.49756 -15.89746,-15.264 -16.07389,-15.03654 -0.17644,0.22746 -2.50534,3.78857 -5.17534,7.91357 -5.31929,8.21801 -17.57902,20.88854 -25.16508,26.00831 -22.11524,14.92539 -46.41299,20.48747 -72.00764,16.48352 z M 159,380.78984 c 4.125,-1.40139 9.83195,-3.77544 12.68212,-5.27566 11.61213,-6.11222 24.61127,-19.25542 31.16777,-31.51318 l 3.34989,-6.26281 -9.2788,-9.31754 c -5.10334,-5.12465 -9.64829,-9.08918 -10.09989,-8.81008 -0.4516,0.27911 -0.82109,1.37374 -0.82109,2.43252 0,2.45657 -5.1358,13.09297 -8.60679,17.82492 C 167.89119,352.82199 152.48708,360.5 136,360.5 c -31.48887,0 -54.997399,-27.13657 -50.895368,-58.75 1.999812,-15.4121 5.513877,-20.42938 35.194678,-50.25 l 23.88748,-24 -5.34339,-0.21625 c -2.93887,-0.11894 -9.78148,-0.7386 -15.20581,-1.37701 l -9.86241,-1.16076 -17.447864,17.37701 c -22.691663,22.59951 -26.4441,27.69518 -32.026302,43.49047 -2.590481,7.32998 -2.787174,8.98039 -2.787174,23.38654 0,14.40615 0.196693,16.05656 2.787174,23.38654 8.705367,24.63254 26.656981,41.82194 51.198986,49.02509 3.3,0.96856 6.45,1.93258 7,2.14227 0.55,0.20968 7.3,0.24685 15,0.0826 11.86966,-0.25322 15.14125,-0.68638 21.5,-2.84664 z m 178.78418,0.41129 c 24.55298,-8.36017 41.29754,-24.73457 49.80205,-48.70113 2.65221,-7.47418 2.83879,-9.01878 2.83879,-23.5 0,-14.4857 -0.18591,-16.02351 -2.84109,-23.5 C 382.84179,272.14704 377.1627,263.22702 367.7141,254.29093 353.68272,241.02063 335.39061,233.72671 316,233.67007 c -20.02444,-0.0585 -36.64344,6.95734 -55.5,23.42968 -8.45804,7.38862 -16.50316,11.27144 -26.79369,12.93149 -14.12868,2.2792 -28.06573,-1.49094 -39.94091,-10.8045 -9.73535,-7.63532 -15.69933,-17.56689 -18.45162,-30.72674 -0.92023,-4.4 -1.75623,-8.12644 -1.85778,-8.28099 -0.10156,-0.15454 -3.7332,0.85221 -8.07032,2.23724 -4.33712,1.38502 -9.3623,2.52396 -11.16706,2.53098 -2.10903,0.008 -3.50603,0.59818 -3.91015,1.6513 -1.54948,4.03787 9.59634,30.89298 16.10646,38.80747 3.78674,4.60361 99.48035,100.08599 104.08516,103.8554 4.93191,4.03717 15.50953,9.27704 23.49991,11.64123 4.125,1.2205 7.95,2.39311 8.5,2.6058 0.55,0.2127 7.3,0.253 15,0.0896 11.11696,-0.23595 15.29411,-0.73778 20.28418,-2.43687 z M 300.5,358.22711 c -4.4,-1.50166 -10.475,-4.39771 -13.5,-6.43567 -5.29396,-3.56658 -56.88365,-54.34293 -55.95467,-55.07251 0.25007,-0.1964 4.72967,-1.63573 9.95467,-3.19853 16.3711,-4.89659 27.69505,-10.7727 36.00538,-18.68353 12.93325,-12.3115 24.17339,-17.28122 38.99462,-17.24107 16.58348,0.0449 31.29046,7.37535 41.18003,20.52546 5.30348,7.05201 8.35019,14.35477 9.6584,23.15058 3.84588,25.85791 -10.91393,49.23939 -36.14005,57.25056 -10.71315,3.40223 -19.61951,3.31514 -30.19838,-0.29529 z m 25.90107,-21.8481 c 6.48662,-2.21022 14.55141,-10.28452 16.85911,-16.87901 2.77553,-7.93138 2.31768,-16.02415 -1.31821,-23.30021 -3.2523,-6.50843 -6.67097,-9.96136 -13.3255,-13.45904 -3.25814,-1.7125 -5.88882,-2.17169 -12.61647,-2.2022 -7.59948,-0.0345 -9.02972,0.26851 -13.5,2.85975 -2.75,1.59407 -7.25,4.98835 -10,7.54285 C 286.67928,296.34807 274.75452,305 273.12301,305 272.50535,305 272,305.38109 272,305.84686 c 0,0.46578 6.43164,7.14716 14.29253,14.84751 15.76957,15.44753 18.55655,17.08726 29.27933,17.22668 3.33952,0.0434 8.21267,-0.6505 10.82921,-1.54204 z m -182.01709,0.43424 c 12.29258,-3.54425 20.60982,-14.66975 20.62097,-27.58349 0.007,-7.95142 -2.63908,-14.55102 -8.50495,-21.21332 -2.75,-3.12339 -6.22101,-7.08242 -7.71335,-8.79787 -1.49234,-1.71544 -4.1228,-5.61639 -5.84546,-8.66878 C 141.21853,267.49741 139.49307,265 139.10684,265 c -0.38624,0 -6.61672,5.97299 -13.84553,13.27332 -15.45448,15.60739 -18.23596,20.30451 -18.25154,30.82152 -0.0287,19.35364 18.56308,33.14212 37.37421,27.71841 z m 95.09212,-92.09137 c 10.81277,-5.82946 16.38288,-16.31225 15.2582,-28.71549 -0.67928,-7.49119 -3.10058,-12.46291 -8.76937,-18.00639 -5.56058,-5.43767 -12.24083,-8.03244 -20.46493,-7.94907 -10.72881,0.10875 -20.74612,6.21471 -25.5,15.5433 -2.12519,4.17028 -2.49685,6.25508 -2.47896,13.90577 0.0186,7.96587 0.33078,9.52063 2.71666,13.53097 3.42454,5.75618 6.97137,9.06199 13.25434,12.35367 4.11713,2.15699 6.30791,2.61043 12.5,2.58724 6.52381,-0.0244 8.29131,-0.45044 13.48406,-3.25 z M 287.5,215.46139 c 2.75,-0.79497 7.1375,-1.93628 9.75,-2.53626 2.82663,-0.64915 4.75,-1.64603 4.75,-2.46194 0,-1.69443 -5.18355,-17.54278 -7.49393,-22.91218 -0.93456,-2.17194 -3.27393,-6.44694 -5.1986,-9.5 C 284.35364,170.19289 186.58023,72.266202 178,66.569044 165.06198,57.978374 151.8528,53.995949 136.33339,54.007006 103.13309,54.03066 75.716968,73.660322 64.414757,105.5 c -2.647631,7.45869 -2.841364,9.04879 -2.86318,23.5 -0.02067,13.69234 0.252287,16.31636 2.340503,22.5 4.586178,13.58061 9.485504,21.19285 20.595566,32 9.393085,9.13698 18.168724,14.30539 30.615174,18.03077 11.89202,3.55945 29.93787,3.54881 41.87683,-0.0247 12.86339,-3.85018 22.34645,-9.58544 34.21181,-20.69097 4.74038,-4.43681 10.12775,-7.6485 17.45798,-10.40759 C 213.98311,168.39994 216.8654,168 226,168 c 9.1346,0 12.01689,0.39994 17.35056,2.40753 18.92923,7.12494 30.90393,22.3086 34.24536,43.42234 0.60323,3.81169 0.93769,4.25489 2.79466,3.70339 1.16018,-0.34456 4.35942,-1.2769 7.10942,-2.07187 z M 124,179.42107 C 97.589191,172.47114 81.035296,147.76006 85.031336,121.25 88.203367,100.20648 103.87048,83.466312 125,78.543844 c 8.79189,-2.048215 14.16359,-1.926185 23.56104,0.53524 12.94874,3.391597 17.43711,6.841559 46.28245,35.574816 l 26.34349,26.24113 -3.83503,1.60238 c -2.10926,0.88131 -5.63883,2.01801 -7.84349,2.526 -13.40075,3.08775 -25.67531,9.99799 -38.00846,21.3977 -13.10011,12.10863 -31.62284,17.17799 -47.5,12.99996 z m 24.20832,-23.84931 c 2.03957,-0.96805 6.76457,-4.48117 10.5,-7.80694 3.73542,-3.32577 9.94168,-8.07929 13.79168,-10.56338 3.85,-2.48409 7.20314,-4.68627 7.45142,-4.89374 0.24828,-0.20746 -5.54234,-6.38334 -12.86805,-13.72416 -16.45259,-16.48653 -19.20519,-18.06039 -31.58337,-18.05857 -8.0769,0.001 -9.48293,0.28928 -13.70847,2.80886 -13.64197,8.13435 -18.80162,24.14207 -12.24499,37.98988 3.2345,6.83135 10.00171,13.07722 16.45346,15.18587 5.79215,1.89307 17.26464,1.40861 22.20832,-0.93782 z M 357.11764,194.25 c 19.28961,-19.49482 20.793,-21.26858 25.6729,-30.28995 6.31639,-11.67702 7.68361,-17.91867 7.65788,-34.96005 -0.0218,-14.45121 -0.21555,-16.04131 -2.86318,-23.5 C 376.28247,73.658744 348.77729,54 315.52994,54 286.75582,54 262.68568,68.916428 248.54529,95.510843 l -2.60233,4.894307 9.20743,9.24587 c 5.06409,5.08523 9.57692,9.01751 10.02852,8.73841 0.4516,-0.27911 0.82109,-1.32653 0.82109,-2.3276 0,-2.85535 4.77376,-12.56116 8.81997,-17.93239 11.99687,-15.925515 32.26271,-23.750344 50.84426,-19.631439 17.9738,3.984186 31.90413,15.505051 38.33577,31.705019 2.2184,5.58769 2.5,7.77064 2.5,19.38001 0,11.74297 -0.25093,13.63788 -2.44981,18.5 -4.43368,9.80367 -10.61399,17.1466 -33.46869,39.76472 C 318.16167,200.13901 308,210.53545 308,210.95096 c 0,0.4155 2.1375,0.57898 4.75,0.36328 2.6125,-0.21569 8.35,0.0155 12.75,0.51378 4.4,0.49827 9.13963,0.96581 10.5325,1.03896 2.03478,0.10688 6.17874,-3.552 21.08514,-18.61698 z m -30.40221,-34.5 c 15.48828,-15.56153 18.25908,-20.23749 18.2748,-30.84028 0.0167,-11.24746 -5.86292,-20.64438 -16.37376,-26.16897 -5.63394,-2.961247 -19.22605,-3.092578 -25.11647,-0.24268 -5.9215,2.86493 -12.70054,10.30011 -14.83111,16.2666 -4.12535,11.55271 -1.50501,22.17281 8.07691,32.73533 2.99364,3.3 7.75755,9.4875 10.58647,13.75 2.82893,4.2625 5.38021,7.75 5.66951,7.75 0.2893,0 6.46044,-5.9625 13.71365,-13.25 z"
         id="path20" />
    </g>
  </g>
</svg>
